<?xml version="1.0" standalone="no"?>
<!DOCTYPE svg PUBLIC "-//W3C//DTD SVG 20010904//EN"
 "http://www.w3.org/TR/2001/REC-SVG-20010904/DTD/svg10.dtd">
<svg version="1.0" xmlns="http://www.w3.org/2000/svg"
 width="1500.000000pt" height="1386.000000pt" viewBox="0 0 1500.000000 1386.000000"
 preserveAspectRatio="xMidYMid meet">

<g transform="translate(0.000000,1386.000000) scale(0.100000,-0.100000)"
fill="#000000" stroke="none">
<path d="M7305 10323 c-22 -2 -44 -8 -50 -13 -5 -4 -27 -11 -47 -15 -21 -4
-38 -11 -38 -15 0 -5 -13 -11 -30 -15 -16 -4 -30 -10 -30 -15 0 -4 -12 -11
-26 -14 -43 -11 -205 -182 -241 -256 -51 -105 -60 -132 -73 -229 -20 -142 8
-293 76 -418 14 -26 32 -53 40 -59 8 -6 14 -15 14 -20 0 -8 99 -105 145 -143
26 -21 148 -81 165 -81 9 0 20 -4 26 -9 15 -16 182 -32 258 -26 74 7 216 44
216 56 0 4 14 10 30 14 17 4 30 11 30 16 0 5 5 9 10 9 26 0 200 157 200 181 0
4 6 14 13 21 19 20 72 136 91 199 22 76 22 262 0 338 -22 73 -87 208 -120 246
-62 73 -78 87 -174 157 -41 30 -51 33 -112 31 -38 -1 -68 1 -69 5 -2 22 -8 44
-13 49 -7 7 -242 12 -291 6z"/>
<path d="M7742 8822 c-15 -19 -48 -56 -74 -84 -27 -27 -48 -51 -48 -54 0 -4
-27 -35 -95 -109 -16 -17 -43 -48 -60 -69 -16 -20 -34 -36 -40 -36 -5 1 -21
15 -35 32 -14 17 -36 43 -49 57 -13 14 -42 48 -65 75 -22 26 -64 72 -91 100
-28 29 -61 67 -75 84 -20 25 -33 32 -62 32 -20 0 -39 -4 -42 -9 -3 -4 -28 -11
-55 -15 -28 -4 -53 -10 -55 -15 -3 -5 -26 -12 -51 -15 -24 -4 -47 -11 -50 -17
-4 -5 -13 -9 -21 -9 -27 0 -329 -145 -354 -170 -14 -14 -70 -50 -79 -50 -5 0
-11 -3 -13 -8 -1 -4 -34 -32 -73 -62 -82 -65 -225 -203 -225 -217 0 -6 10 -21
23 -35 55 -61 148 -165 168 -188 11 -14 40 -47 63 -74 22 -26 64 -72 91 -101
28 -28 61 -65 75 -82 62 -74 120 -140 176 -200 l62 -65 66 66 c36 36 70 66 74
66 5 0 17 9 27 20 10 11 24 20 32 20 7 0 13 3 13 8 0 4 21 19 48 32 26 14 49
28 52 31 3 3 34 15 70 28 36 12 72 27 82 31 9 5 40 12 70 16 29 4 58 11 65 16
27 21 406 -7 423 -32 3 -4 20 -11 38 -15 18 -4 45 -13 60 -21 15 -8 33 -14 40
-14 6 0 12 -4 12 -9 0 -5 12 -12 27 -16 15 -3 30 -10 33 -14 3 -4 23 -18 45
-31 48 -29 72 -48 146 -117 30 -29 60 -53 66 -53 5 0 22 16 37 35 15 19 44 52
64 74 20 21 56 61 78 87 63 74 81 94 134 154 53 60 71 80 134 154 22 26 57 65
76 86 44 47 113 129 122 145 10 17 -202 220 -271 259 -9 5 -21 14 -28 20 -31
28 -41 34 -61 40 -12 4 -22 11 -22 14 0 4 -21 19 -47 32 -27 14 -50 28 -53 32
-3 3 -18 10 -33 13 -15 4 -27 11 -27 15 0 5 -13 11 -30 15 -16 4 -30 11 -30
15 0 5 -16 12 -35 16 -19 3 -38 10 -41 15 -3 5 -13 9 -22 9 -9 0 -30 7 -45 15
-15 8 -43 17 -63 21 -19 3 -36 10 -39 14 -3 5 -30 12 -60 15 -30 4 -55 11 -55
15 0 4 -20 10 -45 12 -42 3 -48 0 -73 -30z"/>
<path d="M8980 8063 c0 -4 -17 -27 -38 -49 -20 -23 -60 -68 -89 -100 -28 -33
-68 -77 -87 -99 -20 -22 -36 -46 -36 -53 0 -14 29 -72 41 -82 17 -14 111 -227
137 -310 61 -195 67 -236 67 -480 0 -180 -4 -240 -18 -300 -46 -197 -79 -282
-189 -492 -11 -21 -24 -38 -28 -38 -4 0 -11 -11 -14 -25 -4 -14 -11 -25 -16
-25 -6 0 -10 -7 -10 -15 0 -8 -4 -15 -9 -15 -4 0 -21 -19 -36 -42 -30 -45
-239 -258 -254 -258 -5 0 -24 -13 -42 -30 -19 -16 -42 -32 -51 -36 -10 -3 -18
-9 -18 -12 0 -4 -21 -19 -47 -32 -27 -14 -50 -27 -53 -30 -10 -10 -97 -50
-109 -50 -6 0 -11 -4 -11 -10 0 -5 -6 -10 -12 -10 -7 0 -25 -6 -40 -14 -15 -8
-42 -17 -60 -21 -18 -4 -37 -11 -43 -15 -5 -4 -27 -11 -49 -14 -21 -4 -46 -11
-55 -16 -95 -53 -638 -53 -756 0 -11 5 -36 12 -55 16 -19 3 -39 10 -45 14 -5
4 -26 11 -45 15 -19 4 -41 11 -50 16 -8 4 -63 31 -122 60 -60 29 -108 56 -108
61 0 4 -6 8 -14 8 -25 0 -189 131 -281 224 -92 93 -185 206 -185 225 0 6 -3
11 -7 11 -15 0 -143 243 -143 272 0 9 -4 19 -9 22 -8 5 -28 67 -62 186 -29
105 -52 315 -46 426 10 173 57 398 109 514 6 14 18 41 26 60 29 67 76 157 108
205 14 21 13 25 -12 51 -14 16 -45 51 -68 78 -22 26 -58 66 -78 87 -20 22 -49
55 -64 74 -15 19 -33 35 -40 35 -37 0 -229 -362 -282 -530 -83 -266 -97 -352
-97 -630 0 -265 11 -339 82 -585 31 -107 114 -293 183 -410 17 -27 35 -60 42
-72 6 -13 15 -23 20 -23 4 0 8 -7 8 -15 0 -9 7 -18 15 -21 8 -4 15 -12 15 -20
0 -8 4 -14 8 -14 4 0 15 -12 24 -27 31 -53 190 -222 274 -293 68 -57 123 -100
129 -100 3 0 15 -9 27 -20 26 -24 203 -130 217 -130 6 0 11 -4 11 -9 0 -5 14
-12 30 -16 17 -4 30 -10 30 -14 0 -4 33 -18 73 -31 39 -14 74 -28 77 -31 3 -4
21 -10 40 -14 19 -4 40 -11 45 -15 6 -4 26 -11 45 -14 19 -4 44 -11 55 -16 28
-12 123 -29 225 -41 47 -5 114 -14 150 -20 88 -15 430 7 485 31 11 5 45 13 75
19 94 17 165 35 170 42 3 4 21 10 40 14 19 4 41 11 50 16 8 5 38 18 65 29 70
30 173 81 217 107 38 23 68 30 68 16 0 -7 17 -29 73 -93 12 -14 34 -41 48 -60
15 -19 36 -45 48 -57 11 -12 21 -25 21 -28 0 -3 8 -13 18 -23 9 -10 31 -35 47
-56 17 -21 37 -46 45 -56 25 -29 77 -92 115 -140 41 -50 92 -113 115 -140 8
-10 29 -35 45 -56 17 -21 37 -45 45 -54 8 -9 38 -45 65 -80 28 -36 57 -72 65
-80 8 -9 29 -33 45 -55 41 -53 104 -113 126 -120 11 -4 19 -11 19 -16 0 -5 8
-9 18 -9 9 0 30 -7 47 -16 33 -17 202 -21 232 -5 10 5 39 19 64 31 49 23 119
82 119 99 0 6 3 11 8 11 22 0 82 163 82 224 0 66 -57 226 -81 226 -5 0 -9 5
-9 10 0 6 -40 52 -89 103 -49 51 -113 117 -141 147 -29 30 -121 127 -205 215
-85 88 -184 192 -220 230 -181 191 -249 257 -253 247 -7 -22 -30 -12 -71 33
-37 40 -53 75 -34 75 4 0 30 -21 57 -47 28 -27 44 -41 38 -31 -8 9 -10 27 -6
42 5 22 2 26 -27 33 -48 13 -53 38 -5 30 35 -6 36 -5 33 23 -3 38 16 38 26 0
9 -37 23 -39 31 -4 7 27 -8 53 -47 83 -13 9 -15 17 -8 24 7 7 20 1 42 -21 18
-18 38 -32 45 -32 6 0 24 23 39 51 l26 51 -22 25 c-18 18 -21 28 -13 40 15 24
57 54 80 57 12 2 29 22 44 53 37 74 50 106 50 119 0 6 7 25 15 40 8 16 15 37
15 47 0 11 6 33 14 50 12 29 22 73 57 252 21 111 24 406 4 540 -26 179 -72
358 -122 475 -9 19 -22 51 -30 70 -30 71 -55 120 -78 154 -13 19 -26 42 -29
52 -10 29 -109 167 -123 172 -7 2 -13 0 -13 -5z m-105 -2323 c11 -17 -5 -32
-21 -19 -8 6 -14 15 -14 20 0 12 27 11 35 -1z m-27 -56 c39 -27 47 -63 22 -97
l-22 -29 23 -24 c16 -17 20 -27 12 -35 -7 -7 -32 14 -83 68 l-72 77 31 28 c36
32 57 35 89 12z m-122 -79 c4 -9 31 -40 62 -69 43 -41 54 -57 48 -72 -7 -17
-14 -12 -56 36 -27 30 -50 60 -50 65 0 6 -9 16 -20 23 -11 7 -20 17 -20 22 0
16 30 12 36 -5z m-7 -99 c9 -37 16 -45 41 -51 31 -7 47 -22 36 -33 -4 -3 -20
-1 -36 5 -29 11 -30 11 -27 -19 3 -47 -20 -46 -28 1 -6 35 -12 41 -47 56 -30
12 -38 19 -30 27 9 9 18 8 37 0 24 -11 25 -10 25 23 0 49 15 44 29 -9z m-132
-16 c3 -11 9 -20 13 -20 10 0 100 -111 100 -122 0 -5 -6 -8 -14 -8 -17 0 -96
96 -96 116 0 8 -6 14 -14 14 -15 0 -28 24 -19 34 12 12 25 6 30 -14z m-67 -55
c-22 -24 -23 -26 -6 -44 17 -19 20 -19 43 -4 19 13 26 13 36 4 9 -10 7 -16
-10 -28 -28 -19 -29 -28 -3 -60 18 -24 19 -43 1 -43 -8 0 -119 143 -123 159
-2 5 13 21 31 35 44 33 66 19 31 -19z"/>
<path d="M8790 5655 c-11 -13 -9 -20 10 -40 18 -19 26 -22 37 -14 17 15 17 34
-3 53 -19 20 -28 20 -44 1z"/>
<path d="M7256 7191 c-3 -4 -23 -11 -44 -14 -36 -6 -94 -31 -117 -49 -135
-111 -185 -222 -185 -411 0 -149 43 -279 114 -347 64 -61 68 -64 170 -111 20
-10 71 -14 165 -14 140 0 147 1 248 53 39 19 103 77 103 91 0 6 3 11 8 11 7 0
37 56 68 130 16 36 19 70 19 185 0 143 -3 157 -49 255 -44 95 -192 210 -270
210 -14 0 -28 5 -31 10 -8 12 -192 13 -199 1z m229 -181 c93 -75 123 -135 132
-266 14 -204 -90 -344 -256 -344 -108 0 -188 52 -233 150 -29 64 -32 252 -4
325 20 53 74 114 122 140 38 21 211 17 239 -5z"/>
<path d="M6560 6853 c0 -338 -7 -404 -40 -435 -29 -27 -119 -25 -149 3 -27 25
-41 60 -41 100 0 28 -2 29 -44 29 -24 0 -64 -3 -90 -6 -45 -7 -46 -7 -46 -44
0 -42 26 -127 46 -151 8 -8 14 -20 14 -25 0 -11 62 -54 77 -54 6 0 13 -6 16
-12 3 -10 39 -13 137 -13 98 0 134 3 138 13 2 6 10 12 19 12 8 0 36 22 63 49
80 81 83 97 88 509 l4 352 -96 0 -96 0 0 -327z"/>
<path d="M7960 6716 l0 -466 279 0 c154 0 282 4 285 9 3 4 24 11 46 15 22 3
40 11 40 16 0 6 6 10 13 10 17 0 64 54 89 104 30 58 30 179 0 227 -27 45 -74
87 -107 95 -22 6 -37 34 -17 34 21 0 72 66 92 121 23 59 23 61 5 119 -20 65
-68 125 -125 156 -31 16 -66 18 -317 22 l-283 4 0 -466z m498 296 c2 -6 9 -12
15 -12 17 0 37 -48 37 -85 0 -21 -10 -43 -31 -66 l-30 -34 -150 -4 -149 -3 0
112 0 112 152 -4 c109 -2 153 -7 156 -16z m-23 -362 c3 -5 16 -10 29 -10 38 0
86 -65 86 -115 0 -22 -10 -43 -46 -93 -10 -14 -140 -31 -236 -32 l-118 0 0
130 0 130 139 0 c83 0 142 -4 146 -10z"/>
<path d="M9152 5998 c-13 -13 -16 -38 -6 -38 8 0 33 32 34 43 0 11 -15 8 -28
-5z"/>
<path d="M0 500 l0 -500 7500 0 7500 0 0 500 0 500 -7500 0 -7500 0 0 -500z
m860 144 l0 -56 34 6 c41 8 92 -11 121 -44 17 -19 21 -39 24 -141 l3 -119 -36
0 -36 0 0 104 c0 121 -9 139 -69 134 l-36 -3 -3 -117 -3 -118 -34 0 -35 0 0
205 0 205 35 0 35 0 0 -56z m630 -54 l49 0 3 37 c2 30 9 41 36 56 l32 19 0
-56 0 -56 41 0 c39 0 40 -1 37 -32 -3 -30 -6 -33 -40 -36 l-38 -3 0 -66 c0
-71 16 -103 52 -103 13 0 18 -8 18 -30 0 -28 -3 -30 -36 -30 -75 0 -104 44
-104 160 l0 70 -50 0 -50 0 0 -69 c0 -74 14 -101 51 -101 14 0 19 -7 19 -30 0
-28 -2 -30 -39 -30 -28 0 -49 7 -68 24 -26 23 -28 30 -31 115 -3 70 -7 91 -18
91 -9 0 -14 12 -14 35 0 24 5 35 15 35 11 0 15 11 15 38 0 33 4 40 33 54 l32
15 3 -53 3 -54 49 0z m1010 55 l0 -55 35 0 c33 0 35 -2 35 -35 0 -33 -2 -35
-35 -35 l-35 0 0 -76 c0 -75 0 -76 30 -87 23 -9 30 -17 30 -39 0 -26 -3 -28
-37 -28 -71 1 -93 37 -93 148 0 71 -2 80 -20 85 -15 4 -20 14 -20 36 0 24 4
31 20 31 16 0 20 7 20 38 0 30 5 40 28 54 15 9 30 17 35 17 4 1 7 -24 7 -54z
m710 -56 l0 -111 47 56 c45 53 50 56 92 56 l45 0 -35 -37 c-19 -21 -47 -52
-62 -69 l-28 -31 61 -78 c33 -43 60 -79 60 -81 0 -2 -17 -4 -39 -4 -35 0 -42
5 -80 55 -23 31 -46 53 -52 50 -5 -4 -9 -28 -9 -56 l0 -49 -35 0 -35 0 0 205
0 205 35 0 35 0 0 -111z m9700 31 c0 -33 -4 -60 -10 -60 -6 0 -10 27 -10 60 0
33 4 60 10 60 6 0 10 -27 10 -60z m60 14 l13 -46 16 42 c25 67 41 63 41 -9 0
-65 -19 -87 -21 -23 l-1 37 -12 -34 c-17 -47 -30 -48 -43 -4 l-10 38 -2 -37
c-2 -59 -21 -45 -21 15 0 82 20 92 40 21z m154 -18 c19 -58 19 -56 6 -56 -5 0
-10 7 -10 15 0 9 -9 15 -25 15 -16 0 -25 -6 -25 -15 0 -8 -4 -15 -10 -15 -5 0
-10 2 -10 4 0 3 21 65 35 105 8 20 20 4 39 -53z m90 58 c28 -11 17 -24 -15
-17 l-30 6 3 -44 c2 -36 7 -44 23 -44 25 0 32 32 8 38 -12 3 -8 5 10 6 31 1
30 1 17 -33 -6 -18 -17 -26 -33 -26 -33 0 -47 18 -47 60 0 51 23 70 64 54z
m106 -4 c0 -5 -11 -10 -25 -10 -16 0 -25 -6 -25 -15 0 -8 9 -15 20 -15 11 0
20 -4 20 -10 0 -5 -9 -10 -20 -10 -33 0 -26 -38 8 -43 22 -3 20 -4 -10 -6
l-38 -1 0 53 c0 30 3 57 7 60 10 11 63 8 63 -3z m57 -82 c-2 -18 -4 -4 -4 32
0 36 2 50 4 33 2 -18 2 -48 0 -65z m103 73 c14 -26 13 -74 -2 -89 -7 -7 -25
-12 -40 -12 -28 0 -28 1 -28 60 0 60 0 60 30 60 19 0 33 -7 40 -19z m248 7
c18 -18 15 -33 -13 -67 l-26 -30 28 -4 c23 -3 21 -4 -10 -6 l-38 -1 32 39 c35
44 34 77 -1 68 -11 -3 -18 -1 -14 4 7 13 28 11 42 -3z m90 0 c18 -18 15 -33
-13 -67 l-26 -30 28 -4 c22 -3 20 -4 -11 -6 l-38 -1 32 36 c35 40 36 69 3 68
-12 0 -20 3 -17 8 7 12 28 10 42 -4z m195 6 c6 -7 -29 -93 -44 -109 -6 -5 -1
12 10 38 27 62 26 65 -6 70 -27 4 -27 4 3 6 17 0 33 -2 37 -5z m171 -10 c32
-31 13 -104 -27 -104 -21 0 -21 1 3 13 17 9 25 22 27 44 3 32 -18 60 -37 48
-16 -10 -12 -43 8 -55 16 -11 16 -11 -1 -6 -10 3 -21 6 -23 6 -9 0 -3 47 8 58
16 16 23 15 42 -4z m80 9 c-12 -2 -24 -12 -27 -23 -3 -14 2 -19 25 -24 25 -5
29 -10 26 -33 -3 -24 -8 -28 -38 -30 -34 -1 -34 -1 -5 5 41 10 42 46 2 50 -21
3 -27 8 -23 19 3 8 6 21 6 29 0 9 10 14 28 13 21 -1 23 -3 6 -6z m103 -5 c6
-7 10 -33 9 -58 -1 -44 -2 -45 -36 -46 l-35 -2 33 5 c23 3 32 9 32 24 0 13 -7
19 -21 19 -21 0 -21 0 1 18 29 24 18 46 -19 38 -19 -5 -22 -4 -11 4 20 13 36
13 47 -2z m99 -13 c32 -49 -10 -119 -51 -85 -20 16 -19 75 1 94 21 22 31 20
50 -9z m-848 -42 l-2 -58 -3 53 c-3 35 -8 50 -15 46 -7 -4 -8 -2 -4 4 16 27
26 9 24 -45z m268 22 l-27 -35 36 0 c21 0 34 -4 30 -10 -5 -8 -62 -4 -74 6 -4
3 49 74 56 74 3 0 -7 -16 -21 -35z m216 -5 c2 -22 0 -47 -4 -57 -6 -16 -7 -16
-7 -1 -1 11 -11 18 -31 20 l-30 3 25 38 c14 20 30 37 34 37 5 0 11 -18 13 -40z
m-585 -2 c-3 -8 -6 -5 -6 6 -1 11 2 17 5 13 3 -3 4 -12 1 -19z m-12775 -49
c14 -8 15 -14 7 -39 -9 -26 -13 -28 -35 -19 -38 14 -80 11 -95 -7 -11 -14 -11
-18 4 -29 10 -7 35 -15 57 -19 96 -15 119 -117 38 -166 -37 -22 -107 -26 -157
-9 -33 12 -34 13 -22 44 7 17 17 20 82 20 67 0 74 2 74 20 0 19 -16 27 -76 40
-48 9 -74 39 -74 83 0 47 24 78 69 91 33 10 100 5 128 -10z m1131 10 c51 -14
77 -57 77 -126 l0 -53 -85 0 c-76 0 -85 -2 -85 -19 0 -39 34 -48 105 -27 11 3
29 -1 40 -9 19 -15 19 -16 -8 -43 -24 -23 -35 -27 -88 -27 -56 0 -63 3 -90 33
-27 31 -29 37 -29 121 0 100 16 133 73 150 43 12 46 12 90 0z m265 -26 c3 -31
1 -33 -27 -33 -49 0 -61 -29 -61 -142 l0 -98 -30 0 -30 0 0 123 c0 115 2 125
23 145 28 27 65 42 97 39 20 -2 26 -8 28 -34z m182 26 c54 -11 56 -15 39 -53
-10 -21 -15 -23 -36 -15 -37 14 -79 11 -94 -7 -11 -14 -11 -18 4 -29 10 -7 35
-15 56 -19 52 -8 80 -33 87 -77 12 -74 -74 -125 -178 -105 -52 10 -61 19 -48
48 11 23 16 24 83 24 60 -1 72 2 75 16 4 19 -12 28 -86 48 -34 9 -46 18 -60
46 -16 34 -15 37 3 72 14 25 31 41 55 49 44 15 40 15 100 2z m712 1 c33 -10
78 -50 78 -70 0 -5 -13 -13 -29 -18 -23 -8 -31 -7 -45 9 -19 23 -59 25 -80 3
-19 -19 -22 -134 -4 -152 17 -17 68 -15 89 3 20 19 69 10 69 -12 0 -43 -85
-82 -153 -69 -58 11 -81 46 -85 131 -6 111 18 161 83 178 32 8 38 7 77 -3z
m446 -16 c2 -11 -4 -26 -12 -33 -31 -26 -71 14 -45 45 17 21 53 14 57 -12z
m-2338 -99 c0 -105 2 -115 20 -125 12 -6 33 -10 48 -8 l27 3 3 123 3 122 34 0
35 0 0 -143 0 -144 -39 -11 c-82 -25 -162 -8 -186 39 -11 20 -15 61 -15 144
l0 115 35 0 35 0 0 -115z m1610 81 c0 -34 -1 -35 -42 -38 -43 -3 -43 -3 -46
-45 -3 -42 -4 -43 -39 -43 l-35 0 4 57 c6 75 36 103 109 103 l49 0 0 -34z m95
-163 c-1 -75 -29 -103 -102 -103 l-54 0 3 33 c3 29 6 32 43 37 39 5 40 6 43
48 3 42 4 43 35 40 32 -3 32 -4 32 -55z m10637 -25 c-3 -61 -12 -60 -12 2 0
29 3 50 7 47 3 -4 6 -26 5 -49z m671 9 c14 11 17 12 10 2 -10 -12 -9 -20 4
-40 16 -24 16 -24 -3 -6 -12 9 -23 17 -27 17 -3 0 -8 -8 -10 -17 -3 -10 -4 7
-4 37 0 33 2 42 4 22 4 -34 5 -34 26 -15z m-501 -8 c-3 -20 0 -34 9 -40 11 -7
11 -9 -2 -9 -12 0 -18 11 -21 41 -4 41 -1 52 12 44 4 -2 5 -18 2 -36z m50 0
c-3 -20 0 -34 9 -40 11 -7 11 -9 -2 -9 -12 0 -18 11 -22 38 -4 39 -1 55 12 48
4 -3 6 -19 3 -37z m250 23 c-16 -5 -15 -59 1 -65 7 -3 5 -6 -5 -6 -15 -1 -18
7 -18 44 0 38 3 43 17 38 11 -4 12 -8 5 -11z m-520 -3 c-14 -5 -20 -13 -16
-20 4 -8 3 -9 -5 -5 -16 10 5 36 28 35 10 0 8 -3 -7 -10z m93 0 c11 -16 1 -19
-13 -3 -7 8 -8 14 -3 14 5 0 13 -5 16 -11z m253 -1 c7 -7 12 -16 12 -22 0 -5
-6 -2 -13 9 -17 22 -37 12 -37 -20 0 -17 7 -25 25 -28 23 -4 23 -4 -2 -3 -21
1 -29 7 -31 24 -3 22 13 52 27 52 4 0 12 -5 19 -12z m60 0 c-9 -7 -19 -26 -21
-43 -4 -27 -4 -27 -6 7 -1 34 7 45 33 47 6 1 2 -5 -6 -11z m50 5 c-24 -6 -23
-20 2 -33 30 -16 25 -40 -7 -39 -24 2 -25 2 -5 6 27 5 28 10 0 32 -23 19 -17
42 10 40 15 -1 15 -2 0 -6z m142 -8 c17 -20 4 -65 -18 -65 -22 0 -42 19 -42
40 0 35 38 51 60 25z m58 4 c-10 -5 -22 -17 -27 -27 -6 -9 -11 -12 -11 -5 0
15 28 43 43 43 7 0 4 -5 -5 -11z m256 -5 c9 -8 16 -20 16 -26 0 -6 -8 0 -18
12 -22 27 -42 19 -42 -17 0 -22 4 -25 26 -20 16 3 22 1 16 -5 -30 -30 -69 25
-42 58 16 18 25 18 44 -2z m124 3 c6 -5 11 -23 11 -40 l-2 -32 -6 35 c-4 22
-12 35 -21 35 -9 0 -17 -13 -21 -35 -6 -35 -6 -35 -8 -4 0 16 -5 34 -10 40
-12 11 38 12 57 1z m-1390 -28 c-3 -8 -7 -3 -11 10 -4 17 -3 21 5 13 5 -5 8
-16 6 -23z m48 4 c7 -25 8 -25 15 -8 5 13 8 15 8 5 0 -8 -3 -21 -8 -29 -6 -10
-11 -6 -19 15 l-10 29 -11 -29 c-6 -16 -14 -27 -16 -24 -7 6 18 68 27 68 4 0
11 -12 14 -27z m121 4 l12 28 -6 -30 c-8 -43 -21 -52 -29 -22 -3 15 -10 24
-15 21 -11 -6 -12 10 -1 20 4 5 11 -4 16 -18 l10 -26 13 27z m43 -17 c4 0 10
10 14 23 5 18 8 20 16 7 5 -8 10 -19 10 -25 0 -5 -4 -3 -9 4 -8 12 -11 9 -16
-12 -4 -15 -11 -27 -15 -27 -9 0 -20 37 -19 60 1 8 4 5 6 -7 2 -13 8 -23 13
-23z m330 5 c0 -32 -2 -35 -30 -35 -16 0 -30 4 -30 8 0 5 10 8 23 8 17 -1 23
5 25 27 5 38 12 34 12 -8z m612 10 c-3 -19 1 -27 19 -34 24 -10 24 -10 2 -10
-24 -1 -42 37 -28 58 10 17 13 13 7 -14z m151 -7 c-8 -46 -13 -48 -13 -5 0 21
4 37 10 37 5 0 7 -14 3 -32z m-1190 -9 c5 -4 6 -13 2 -20 -6 -9 -10 -8 -16 7
-4 10 -8 26 -8 34 1 13 1 13 6 0 3 -8 10 -18 16 -21z m153 -15 c-4 -9 -9 -15
-11 -12 -3 3 -3 13 1 22 4 9 9 15 11 12 3 -3 3 -13 -1 -22z m109 5 c0 -8 -11
-14 -28 -15 -26 -1 -26 -1 -2 3 23 4 24 7 13 20 -11 14 -11 15 2 11 8 -2 15
-11 15 -19z m641 -17 c-10 -2 -22 0 -28 6 -6 6 0 7 19 4 21 -5 23 -7 9 -10z"/>
<path d="M13087 630 c-3 -12 0 -20 8 -20 8 0 11 8 8 20 -3 11 -7 20 -8 20 -1
0 -5 -9 -8 -20z"/>
<path d="M13420 621 c0 -43 9 -55 34 -45 11 4 16 19 16 45 0 35 -3 39 -25 39
-22 0 -25 -4 -25 -39z"/>
<path d="M14422 658 c-24 -24 -11 -88 18 -88 21 0 32 43 19 77 -10 26 -19 29
-37 11z"/>
<path d="M14068 635 c-23 -30 -22 -35 2 -35 16 0 20 7 20 30 0 36 0 36 -22 5z"/>
<path d="M1792 518 c-7 -7 -12 -22 -12 -35 0 -21 4 -23 50 -23 46 0 50 2 50
23 0 30 -18 47 -50 47 -14 0 -31 -5 -38 -12z"/>
<path d="M3461 564 c0 -11 3 -14 6 -6 3 7 2 16 -1 19 -3 4 -6 -2 -5 -13z"/>
<path d="M13984 376 c-9 -24 4 -48 23 -44 12 2 18 12 18 28 0 29 -32 41 -41
16z"/>
</g>
</svg>
